<svg width="16" height="16" viewBox="0 0 16 16" fill="none" xmlns="http://www.w3.org/2000/svg">
<path fill-rule="evenodd" clip-rule="evenodd" d="M11.0392 2C11.5145 2.00003 11.9579 2.22721 12.2219 2.60547L14.7609 6.24609C15.1291 6.77429 15.0666 7.47629 14.6105 7.9375L9.03241 13.5752C8.47144 14.1418 7.52791 14.1419 6.96698 13.5752L1.38983 7.9375C0.933494 7.47625 0.871098 6.77472 1.23944 6.24609L3.77655 2.60547C3.90644 2.41912 4.08287 2.2668 4.28925 2.16113C4.49564 2.05547 4.72608 1.99999 4.96015 2H11.0392ZM11.8801 4.1748C11.7005 3.96532 11.3847 3.94089 11.175 4.12012L8.00018 6.84082L4.82538 4.12012C4.6158 3.9407 4.29998 3.96544 4.1203 4.1748C3.94082 4.38447 3.96541 4.70024 4.17499 4.87988L6.64862 7H3.50018C3.22404 7 3.00018 7.22386 3.00018 7.5C3.00018 7.77614 3.22404 8 3.50018 8H12.5002C12.7761 7.99974 13.0002 7.77598 13.0002 7.5C13.0002 7.22402 12.7761 7.00026 12.5002 7H9.35175L11.8254 4.87988C12.0346 4.70027 12.0592 4.38438 11.8801 4.1748Z" fill="currentColor"/>
</svg>
