<svg xmlns="http://www.w3.org/2000/svg" width="16" height="16" viewBox="0 0 16 16" fill="none">

<path id="bg" opacity="0.4" d="M14.1003 11.7904L8.25648 15V12.5002L11.8975 10.5554L14.1003 11.7904ZM14.5 11.4389V4.72664L12.3615 5.92497V10.2392L14.5 11.4389ZM1.89974 11.7904L7.74352 15V12.5002L4.10252 10.5554L1.89974 11.7904ZM1.5 11.4389V4.72664L3.63848 5.92497V10.2392L1.5 11.4389ZM1.75019 4.29236L7.74352 1V3.41702L3.90404 5.46762L3.87469 5.48391L1.75019 4.29236ZM14.2498 4.29236L8.25648 1V3.41702L12.096 5.46762L12.1253 5.48391L14.2498 4.29236Z" fill="#6C6C71" class="bg"/>
<path id="fg" d="M7.74345 11.9315L4.15137 10.0139V6.21402L7.74345 8.22798V11.9315ZM8.25641 11.9315L11.8485 10.0139V6.21402L8.25641 8.22798V11.9315ZM4.39457 5.77432L8.00063 3.84857L11.6067 5.77432L8.00063 7.79642L4.39457 5.77432Z" fill="#6C6C71" class="fg"/>

</svg>